<?xml version="1.0" encoding="utf-8"?>
<!-- Generator: Adobe Illustrator 28.3.0, SVG Export Plug-In . SVG Version: 6.00 Build 0)  -->
<svg version="1.2" baseProfile="tiny" id="Слой_1"
	 xmlns="http://www.w3.org/2000/svg" xmlns:xlink="http://www.w3.org/1999/xlink" x="0px" y="0px" viewBox="0 0 1440 1440"
	 overflow="visible" xml:space="preserve">
<g transform="translate(0.000000,1440.000000) scale(0.100000,-0.100000)">
	<path fill="#8EC9FF" d="M9920,10591L7226,9423l-36,15c-19,8-1228,531-2687,1163s-2657,1149-2663,1149c-5,0-10-17-9-37
		c1-21,1-1817,0-3990l-1-3953h-180h-180v-120v-120h495h495v120v120h-190h-190v3805c0,2093,3,3805,6,3805s1159-499,2569-1110
		c1409-610,2566-1110,2570-1110s1160,500,2570,1110c1409,611,2565,1110,2569,1110c3,0,6-1712,6-3805V3770h-190h-190v-120v-120h495
		h495v120v120h-180h-180v3858c-1,2121-1,3919,0,3995c1,75,0,137-2,136C12616,11759,11402,11233,9920,10591z"/>
	<path fill="#8EC9FF" d="M2419,10388c-1-326-3-1696-5-3044l-3-2452l72-31c40-16,110-46,157-65s146-61,220-94
		c324-142,4377-1895,4392-1899c20-6,4112,1763,4546,1964l312,146v3033c0,1827-4,3034-9,3034c-28,0-385-152-2508-1070L7260,8901
		l-132,58c-1558,682-4674,2021-4703,2021C2422,10980,2419,10713,2419,10388z M4930,9755l2325-1007l40,15c22,8,978,421,2125,917
		s2187,946,2313,1000l227,99V7879c0-2753-1-2900-17-2906c-10-3-1067-459-2350-1014L7262,2951l-509,220
		C3840,4433,2611,4964,2588,4972l-28,10v2899v2899l23-9C2595,10766,3651,10309,4930,9755z"/>
	<path fill="#BBDFFF" d="M2690,10204v-165l38-16c20-8,75-33,122-55s130-60,185-85c107-48,122-55,290-133c61-29,128-59,150-67
		c22-9,45-20,50-24c6-4,33-16,60-27c28-11,95-41,150-67c180-85,219-102,310-143c50-22,128-58,175-80s211-97,365-167
		c365-166,372-169,493-226c57-27,106-49,108-49s34-14,71-31c38-17,127-58,198-91c72-32,141-65,155-73c14-7,71-31,125-53
		c55-22,206-88,335-147c409-186,523-235,529-229c8,8,6,230-3,277c-7,35-12,40-82,72c-40,19-109,51-151,71c-43,20-118,54-168,76
		c-49,22-126,57-170,78s-132,61-195,89c-63,29-128,58-145,66c-197,92-372,173-425,195c-36,15-110,49-165,74c-119,56-150,70-275,126
		c-52,24-135,62-185,85c-49,23-128,59-175,80c-47,20-121,54-165,75s-132,61-195,90c-63,28-133,60-155,70s-78,36-125,58
		s-132,61-190,87s-134,61-170,78c-36,16-90,41-120,54c-30,14-77,35-105,48c-27,12-97,44-155,70s-136,62-175,80
		c-105,49-207,95-211,95C2692,10370,2690,10296,2690,10204z"/>
	<path fill="#8EC9FF" d="M10688,9927c-109-50-119-57-161-112c-55-73-176-194-243-241c-106-77-228-126-345-139c-59-6-166,13-217,39
		c-26,13-35,11-145-36c-64-28-117-54-117-58c0-14,110-82,168-103c81-29,256-28,367,2c107,28,280,116,386,195c109,83,250,229,332,348
		c56,81,103,159,95,157C10806,9979,10752,9955,10688,9927z"/>
	<path fill="#8EC9FF" d="M11475,9843l-100-45l-104-326c-149-469-154-487-326-1032c-86-272-179-565-207-650c-27-85-92-290-144-454
		c-52-165-95-300-97-302c-1-2-50,39-108,89c-206,179-495,431-588,511c-52,44-118,101-146,126s-96,83-150,130s-171,148-259,225
		c-89,77-224,194-300,260s-168,146-205,177c-36,32-69,58-74,58c-13,0-227-94-226-100c0-3,50-48,111-100c121-103,305-261,632-544
		c116-100,278-239,361-311c83-71,232-200,331-285c160-138,532-458,543-467c5-3-93-319-344-1108c-31-99-74-234-95-300s-63-201-95-300
		c-31-99-71-223-87-275c-17-52-48-151-70-220c-70-222-88-283-84-287c2-2,44,13,94,34c90,36,92,37,106,82c8,25,39,123,69,216
		c30,94,80,251,112,350c31,99,74,234,95,300c50,154,260,812,385,1205c53,168,118,373,145,455c41,126,117,365,300,940
		c56,177,183,573,235,735c30,91,79,246,110,345c72,228,104,328,208,653c47,144,82,262,78,261C11578,9889,11530,9868,11475,9843z"/>
	<path fill="#BBDFFF" d="M2690,7827l1-172l37-17c20-9,78-35,127-58c50-22,104-47,120-55c17-8,136-62,265-120c129-59,269-123,310-142
		s120-55,175-80s118-53,140-63c61-28,305-140,350-161c22-10,96-43,164-74c69-31,148-67,175-80c28-13,182-83,341-156
		c160-72,322-146,360-164c39-18,122-56,185-84s133-60,155-70c170-81,257-121,265-121c6,0,69-27,142-59c383-171,536-239,565-254
		l31-17l8,67c7,69,0,254-10,271c-3,6-68,36-143,67c-76,31-185,78-243,105s-152,70-210,95c-58,26-141,64-185,85s-110,51-147,69
		c-37,17-69,31-72,31s-54,23-113,51c-123,58-166,78-313,144c-58,26-136,62-175,80c-62,29-205,94-320,145c-22,10-93,43-159,74
		c-65,31-120,56-122,56c-3,0-35,14-72,31s-123,57-192,89s-155,72-192,89s-70,31-73,31s-72,32-153,71s-167,79-192,89s-83,36-130,58
		c-47,21-114,53-150,69c-36,17-108,50-160,73c-52,24-135,62-185,85c-79,38-124,58-187,87C2691,7999,2690,7988,2690,7827z"/>
	<path fill="#BBDFFF" d="M2692,5443l3-166l95-43c52-23,122-55,155-69c33-15,111-51,174-81c62-30,115-54,117-54c5,0,171-75,274-123
		c41-19,127-58,190-86c63-29,122-55,131-60c8-5,116-55,240-111c123-56,253-116,289-132c36-17,90-41,120-55c57-25,80-36,220-101
		c47-21,126-57,175-80c50-22,151-69,225-103c169-77,316-143,400-179c58-24,275-125,460-212c36-17,119-55,185-86
		c66-30,193-91,283-135c89-44,165-77,168-74c11,10,16,238,7,287c-10,52,0,46-283,174c-200,90-509,232-630,289c-42,19-127,58-190,86
		s-133,60-155,71c-90,44-277,130-283,130c-4,0-29,11-57,24c-106,52-287,136-292,136c-2,0-42,18-89,40s-87,40-89,40s-57,25-122,56
		c-131,62-153,72-303,139c-58,26-132,60-165,75c-33,16-112,51-175,79c-63,29-122,55-130,60c-9,5-88,41-175,80c-88,40-182,83-210,96
		c-148,70-267,125-271,125c-2,0-37,15-77,34c-135,63-207,96-212,96C2692,5610,2691,5535,2692,5443z"/>
</g>
</svg>
